<?xml version="1.0" encoding="utf-8"?>
<svg xmlns="http://www.w3.org/2000/svg" viewBox="0 0 500 500" xmlns:bx="https://boxy-svg.com" width="500px" height="500px"><defs><bx:guide x="99.065" y="249.992" angle="90"/><bx:guide x="249.96" y="152.117" angle="0"/><bx:export><bx:file format="svg" href="#object-0" excluded="true"/><bx:file format="svg" path="Untitled 6.svg" excluded="true"/><bx:file format="svg" path="Untitled 3.svg" excluded="true"/><bx:file format="svg" path="Untitled 9.svg" excluded="true"/><bx:file format="svg" path="Untitled 10.svg" excluded="true"/><bx:file format="svg" path="Untitled 16.svg"/><bx:file format="svg" href="#object-0" path="Untitled 2.svg" excluded="true"/><bx:file format="svg" href="#object-0" path="Untitled 4.svg" excluded="true"/><bx:file format="svg" href="#object-0" path="Untitled 5.svg" excluded="true"/><bx:file format="svg" href="#object-0" path="Untitled 7.svg" excluded="true"/><bx:file format="svg" href="#object-0" path="Untitled 8.svg" excluded="true"/><bx:file format="svg" href="#object-1" path="Untitled 12.svg" excluded="true"/><bx:file format="svg" href="#object-0" path="Untitled 13.svg" excluded="true"/><bx:file format="svg" href="#object-0" path="Untitled 11.svg" excluded="true"/><bx:file format="svg" href="#object-1" path="Untitled 14.svg" excluded="true"/><bx:file format="svg" href="#object-0" path="Untitled 15.svg" excluded="true"/></bx:export></defs><path d="M 168.328 227.008 L 168.328 189.252 L 232.066 189.252 L 232.066 227.008 L 168.328 227.008 Z M 172.511 342.981 L 172.511 275.16 L 156.27 275.16 L 161.192 235.821 L 232.066 235.821 L 232.066 342.981 L 172.511 342.981 Z M 290.876 345.242 C 277.75 345.242 267.334 341.701 259.623 334.616 C 251.913 327.533 248.056 317.208 248.056 303.643 L 248.056 235.821 L 307.61 235.821 L 307.61 297.768 C 307.61 302.589 310.317 305.002 315.731 305.002 C 317.536 305.002 319.504 304.549 321.637 303.643 C 323.77 302.74 325.411 301.685 326.559 300.479 L 326.559 235.821 L 386.113 235.821 L 386.113 342.981 L 330.25 342.981 L 329.02 336.878 C 324.755 339.288 319.3 341.287 312.656 342.869 C 306.011 344.45 298.751 345.242 290.876 345.242 Z M 411.707 227.008 L 411.707 189.252 L 475.444 189.252 L 475.444 227.008 L 411.707 227.008 Z M 415.891 342.981 L 415.891 275.16 L 399.647 275.16 L 404.569 235.821 L 475.444 235.821 L 475.444 342.981 L 415.891 342.981 Z" style="text-wrap-mode: nowrap; fill: rgb(186, 225, 227);" id="object-0"/></svg>